<svg width="100" height="100" viewBox="0 0 100 100" fill="none" xmlns="http://www.w3.org/2000/svg">
<path d="M64.7271 89.32C80.0806 89.32 92.5271 76.8735 92.5271 61.52C92.5271 46.1665 80.0806 33.72 64.7271 33.72C49.3736 33.72 36.9271 46.1665 36.9271 61.52C36.9271 76.8735 49.3736 89.32 64.7271 89.32Z" fill="#C0B5F7" stroke="#1A1A1A" stroke-width="3" stroke-miterlimit="10"/>
<path d="M48.2371 95.65C48.2371 95.65 55.6771 81.68 55.6771 66.92C55.6771 52.16 46.4371 43.26 46.4371 39.77V27.6C46.4371 27.6 47.5271 25.1 48.3571 23.88C50.0971 21.3 52.0771 5 41.8271 5H41.9071C31.6571 5 33.3871 20.79 35.3771 23.88C36.1671 25.12 37.2971 27.6 37.2971 27.6V39.77C37.2971 43.26 28.0571 52.16 28.0571 66.92C28.0571 81.68 35.4971 95.65 35.4971 95.65H48.2571H48.2371Z" fill="white"/>
<mask id="mask0_1_80" style="mask-type:luminance" maskUnits="userSpaceOnUse" x="28" y="5" width="28" height="91">
<path d="M48.2371 95.65C48.2371 95.65 55.6771 81.68 55.6771 66.92C55.6771 52.16 46.4371 43.26 46.4371 39.77V27.6C46.4371 27.6 47.5271 25.1 48.3571 23.88C50.0971 21.3 52.0771 5 41.8271 5H41.9071C31.6571 5 33.3871 20.79 35.3771 23.88C36.1671 25.12 37.2971 27.6 37.2971 27.6V39.77C37.2971 43.26 28.0571 52.16 28.0571 66.92C28.0571 81.68 35.4971 95.65 35.4971 95.65H48.2571H48.2371Z" fill="white"/>
</mask>
<g mask="url(#mask0_1_80)">
<path d="M48.2371 95.65C48.2371 95.65 55.6771 81.68 55.6771 66.92C55.6771 52.16 46.4371 43.26 46.4371 39.77V27.6C46.4371 27.6 47.5271 25.1 48.3571 23.88C50.0971 21.3 52.0771 5 41.8271 5H41.9071C31.6571 5 33.3871 20.79 35.3771 23.88C36.1671 25.12 37.2971 27.6 37.2971 27.6V39.77C37.2971 43.26 28.0571 52.16 28.0571 66.92C28.0571 81.68 35.4971 95.65 35.4971 95.65H48.2571H48.2371Z" fill="white" stroke="#1A1A1A" stroke-width="3" stroke-linecap="round" stroke-linejoin="round"/>
<path d="M53.3971 28.65H30.1371V31.01H53.3971V28.65Z" fill="#DD2319"/>
<path d="M53.7471 33.36H30.4871V35.72H53.7471V33.36Z" fill="#DD2319"/>
</g>
<path d="M48.2371 95.65C48.2371 95.65 55.6771 81.68 55.6771 66.92C55.6771 52.16 46.4371 43.26 46.4371 39.77V27.6C46.4371 27.6 47.5271 25.1 48.3571 23.88C50.0971 21.3 52.0771 5 41.8271 5H41.9071C31.6571 5 33.3871 20.79 35.3771 23.88C36.1671 25.12 37.2971 27.6 37.2971 27.6V39.77C37.2971 43.26 28.0571 52.16 28.0571 66.92C28.0571 81.68 35.4971 95.65 35.4971 95.65H48.2571H48.2371Z" stroke="#1A1A1A" stroke-width="3" stroke-linecap="round" stroke-linejoin="round"/>
<path d="M36.9471 83.61C36.9471 83.61 39.4871 71.13 36.1071 59.74C32.7271 48.35 23.5671 43.6 22.7671 40.91C21.9671 38.22 19.9871 31.52 19.9871 31.52C19.9871 31.52 20.2571 29.34 20.6171 28.21C21.3671 25.82 19.1671 12.79 11.2571 15.14L11.3171 15.12C3.40714 17.47 8.35714 29.25 10.5971 31.19C11.4971 31.96 12.9271 33.62 12.9271 33.62C12.9271 33.62 14.9171 40.31 15.7071 43.01C16.5071 45.7 11.4171 54.69 14.7971 66.07C18.1771 77.46 27.1071 86.53 27.1071 86.53L36.9471 83.61Z" fill="white"/>
<mask id="mask1_1_80" style="mask-type:luminance" maskUnits="userSpaceOnUse" x="7" y="14" width="31" height="73">
<path d="M36.9471 83.61C36.9471 83.61 39.4871 71.13 36.1071 59.74C32.7271 48.35 23.5671 43.6 22.7671 40.91C21.9671 38.22 19.9871 31.52 19.9871 31.52C19.9871 31.52 20.2571 29.34 20.6171 28.21C21.3671 25.82 19.1671 12.79 11.2571 15.14L11.3171 15.12C3.40714 17.47 8.35714 29.25 10.5971 31.19C11.4971 31.96 12.9271 33.62 12.9271 33.62C12.9271 33.62 14.9171 40.31 15.7071 43.01C16.5071 45.7 11.4171 54.69 14.7971 66.07C18.1771 77.46 27.1071 86.53 27.1071 86.53L36.9471 83.61Z" fill="white"/>
</mask>
<g mask="url(#mask1_1_80)">
<path d="M36.9471 83.61C36.9471 83.61 39.4871 71.13 36.1071 59.74C32.7271 48.35 23.5671 43.6 22.7671 40.91C21.9671 38.22 19.9871 31.52 19.9871 31.52C19.9871 31.52 20.2571 29.34 20.6171 28.21C21.3671 25.82 19.1671 12.79 11.2571 15.14L11.3171 15.12C3.40714 17.47 8.35714 29.25 10.5971 31.19C11.4971 31.96 12.9271 33.62 12.9271 33.62C12.9271 33.62 14.9171 40.31 15.7071 43.01C16.5071 45.7 11.4171 54.69 14.7971 66.07C18.1771 77.46 27.1071 86.53 27.1071 86.53L36.9471 83.61Z" fill="white" stroke="#1A1A1A" stroke-width="3" stroke-linecap="round" stroke-linejoin="round"/>
<path d="M25.6009 30.7443L7.65363 36.0673L8.19389 37.8889L26.1411 32.5659L25.6009 30.7443Z" fill="#DD2319"/>
<path d="M26.9446 34.2839L8.99731 39.6069L9.53758 41.4285L27.4848 36.1054L26.9446 34.2839Z" fill="#DD2319"/>
</g>
<path d="M36.9471 83.61C36.9471 83.61 39.4871 71.13 36.1071 59.74C32.7271 48.35 23.5671 43.6 22.7671 40.91C21.9671 38.22 19.9871 31.52 19.9871 31.52C19.9871 31.52 20.2571 29.34 20.6171 28.21C21.3671 25.82 19.1671 12.79 11.2571 15.14L11.3171 15.12C3.40714 17.47 8.35714 29.25 10.5971 31.19C11.4971 31.96 12.9271 33.62 12.9271 33.62C12.9271 33.62 14.9171 40.31 15.7071 43.01C16.5071 45.7 11.4171 54.69 14.7971 66.07C18.1771 77.46 27.1071 86.53 27.1071 86.53L36.9471 83.61Z" stroke="#1A1A1A" stroke-width="3" stroke-linecap="round" stroke-linejoin="round"/>
<path d="M84.6671 22.15L81.1971 31.22" stroke="#1A1A1A" stroke-width="3" stroke-linecap="round" stroke-linejoin="round"/>
<path d="M93.7672 31.22L88.0372 35.13" stroke="#1A1A1A" stroke-width="3" stroke-linecap="round" stroke-linejoin="round"/>
<path d="M71.8972 22.86L73.5572 29.6" stroke="#1A1A1A" stroke-width="3" stroke-linecap="round" stroke-linejoin="round"/>
<path d="M76.4671 46.78C76.4671 48.6 74.9871 50.08 73.1671 50.08C71.3471 50.08 69.8671 48.6 69.8671 46.78C69.8671 44.96 71.3471 43.48 73.1671 43.48C74.9871 43.48 76.4671 44.96 76.4671 46.78Z" stroke="#1A1A1A" stroke-width="3" stroke-linecap="round" stroke-linejoin="round"/>
<path d="M74.1172 58.93C74.1172 60.75 72.6372 62.23 70.8172 62.23C68.9972 62.23 67.5172 60.75 67.5172 58.93C67.5172 57.11 68.9972 55.63 70.8172 55.63C72.6372 55.63 74.1172 57.11 74.1172 58.93Z" stroke="#1A1A1A" stroke-width="3" stroke-linecap="round" stroke-linejoin="round"/>
<path d="M85.4171 55.94C85.4171 57.76 83.9371 59.24 82.1171 59.24C80.2971 59.24 78.8171 57.76 78.8171 55.94C78.8171 54.12 80.2971 52.64 82.1171 52.64C83.9371 52.64 85.4171 54.12 85.4171 55.94Z" stroke="#1A1A1A" stroke-width="3" stroke-linecap="round" stroke-linejoin="round"/>
</svg>
